<mxfile host="65bd71144e" pages="2">
    <diagram name="聚合" id="b5b7bab2-c9e2-2cf4-8b2a-24fd1a2a6d21">
        <mxGraphModel dx="302" dy="326" grid="1" gridSize="10" guides="1" tooltips="1" connect="1" arrows="1" fold="1" page="1" pageScale="1" pageWidth="827" pageHeight="1169" background="none" math="0" shadow="0">
            <root>
                <mxCell id="0"/>
                <mxCell id="1" parent="0"/>
                <mxCell id="q4y1gXXmvUbQww6NUXkA-9" value="焦糖" style="swimlane;fontStyle=0;childLayout=stackLayout;horizontal=1;startSize=26;fillColor=none;horizontalStack=0;resizeParent=1;resizeParentMax=0;resizeLast=0;collapsible=1;marginBottom=0;" parent="1" vertex="1">
                    <mxGeometry x="200" y="320" width="140" height="52" as="geometry"/>
                </mxCell>
                <mxCell id="q4y1gXXmvUbQww6NUXkA-13" value="焦糖冰淇淋" style="swimlane;fontStyle=0;childLayout=stackLayout;horizontal=1;startSize=26;fillColor=none;horizontalStack=0;resizeParent=1;resizeParentMax=0;resizeLast=0;collapsible=1;marginBottom=0;" parent="1" vertex="1">
                    <mxGeometry x="354" y="200" width="140" height="52" as="geometry"/>
                </mxCell>
                <mxCell id="q4y1gXXmvUbQww6NUXkA-14" value="冰淇淋" style="swimlane;fontStyle=0;childLayout=stackLayout;horizontal=1;startSize=26;fillColor=none;horizontalStack=0;resizeParent=1;resizeParentMax=0;resizeLast=0;collapsible=1;marginBottom=0;" parent="1" vertex="1">
                    <mxGeometry x="474" y="330" width="140" height="52" as="geometry"/>
                </mxCell>
                <mxCell id="q4y1gXXmvUbQww6NUXkA-17" value="" style="endArrow=diamondThin;endFill=0;endSize=24;html=1;rounded=0;entryX=0.25;entryY=1;entryDx=0;entryDy=0;exitX=0.5;exitY=0;exitDx=0;exitDy=0;" parent="1" source="q4y1gXXmvUbQww6NUXkA-9" target="q4y1gXXmvUbQww6NUXkA-13" edge="1">
                    <mxGeometry width="160" relative="1" as="geometry">
                        <mxPoint x="444" y="470" as="sourcePoint"/>
                        <mxPoint x="604" y="470" as="targetPoint"/>
                    </mxGeometry>
                </mxCell>
                <mxCell id="q4y1gXXmvUbQww6NUXkA-18" value="" style="endArrow=diamondThin;endFill=0;endSize=24;html=1;rounded=0;entryX=0.75;entryY=1;entryDx=0;entryDy=0;exitX=0.5;exitY=0;exitDx=0;exitDy=0;" parent="1" source="q4y1gXXmvUbQww6NUXkA-14" target="q4y1gXXmvUbQww6NUXkA-13" edge="1">
                    <mxGeometry width="160" relative="1" as="geometry">
                        <mxPoint x="444" y="470" as="sourcePoint"/>
                        <mxPoint x="604" y="470" as="targetPoint"/>
                    </mxGeometry>
                </mxCell>
            </root>
        </mxGraphModel>
    </diagram>
    <diagram id="y57ESgfZo5Q0gPeMH4wc" name="組合">
        <mxGraphModel dx="558" dy="326" grid="1" gridSize="10" guides="1" tooltips="1" connect="1" arrows="1" fold="1" page="1" pageScale="1" pageWidth="827" pageHeight="1169" math="0" shadow="0">
            <root>
                <mxCell id="CHDtnuDMMGn6DQg8g9th-0"/>
                <mxCell id="CHDtnuDMMGn6DQg8g9th-1" parent="CHDtnuDMMGn6DQg8g9th-0"/>
                <mxCell id="V-P_kBwzDLkw0kjeNrbO-0" value="濃縮咖啡" style="swimlane;fontStyle=0;childLayout=stackLayout;horizontal=1;startSize=26;fillColor=none;horizontalStack=0;resizeParent=1;resizeParentMax=0;resizeLast=0;collapsible=1;marginBottom=0;" parent="CHDtnuDMMGn6DQg8g9th-1" vertex="1">
                    <mxGeometry x="214" y="330" width="140" height="52" as="geometry"/>
                </mxCell>
                <mxCell id="V-P_kBwzDLkw0kjeNrbO-1" value="拿鐵" style="swimlane;fontStyle=0;childLayout=stackLayout;horizontal=1;startSize=26;fillColor=none;horizontalStack=0;resizeParent=1;resizeParentMax=0;resizeLast=0;collapsible=1;marginBottom=0;" parent="CHDtnuDMMGn6DQg8g9th-1" vertex="1">
                    <mxGeometry x="344" y="200" width="140" height="52" as="geometry"/>
                </mxCell>
                <mxCell id="V-P_kBwzDLkw0kjeNrbO-2" value="牛奶" style="swimlane;fontStyle=0;childLayout=stackLayout;horizontal=1;startSize=26;fillColor=none;horizontalStack=0;resizeParent=1;resizeParentMax=0;resizeLast=0;collapsible=1;marginBottom=0;" parent="CHDtnuDMMGn6DQg8g9th-1" vertex="1">
                    <mxGeometry x="474" y="330" width="140" height="52" as="geometry"/>
                </mxCell>
                <mxCell id="V-P_kBwzDLkw0kjeNrbO-5" value="牛" style="swimlane;fontStyle=0;childLayout=stackLayout;horizontal=1;startSize=26;fillColor=none;horizontalStack=0;resizeParent=1;resizeParentMax=0;resizeLast=0;collapsible=1;marginBottom=0;" parent="CHDtnuDMMGn6DQg8g9th-1" vertex="1">
                    <mxGeometry x="474" y="450" width="140" height="52" as="geometry"/>
                </mxCell>
                <mxCell id="V-P_kBwzDLkw0kjeNrbO-6" value="" style="endArrow=diamondThin;endFill=1;endSize=24;html=1;rounded=0;entryX=0.25;entryY=1;entryDx=0;entryDy=0;exitX=0.5;exitY=0;exitDx=0;exitDy=0;" parent="CHDtnuDMMGn6DQg8g9th-1" source="V-P_kBwzDLkw0kjeNrbO-0" target="V-P_kBwzDLkw0kjeNrbO-1" edge="1">
                    <mxGeometry width="160" relative="1" as="geometry">
                        <mxPoint x="330" y="390" as="sourcePoint"/>
                        <mxPoint x="490" y="390" as="targetPoint"/>
                    </mxGeometry>
                </mxCell>
                <mxCell id="V-P_kBwzDLkw0kjeNrbO-7" value="" style="endArrow=diamondThin;endFill=1;endSize=24;html=1;rounded=0;entryX=0.75;entryY=1;entryDx=0;entryDy=0;exitX=0.5;exitY=0;exitDx=0;exitDy=0;" parent="CHDtnuDMMGn6DQg8g9th-1" source="V-P_kBwzDLkw0kjeNrbO-2" target="V-P_kBwzDLkw0kjeNrbO-1" edge="1">
                    <mxGeometry width="160" relative="1" as="geometry">
                        <mxPoint x="330" y="390" as="sourcePoint"/>
                        <mxPoint x="490" y="390" as="targetPoint"/>
                    </mxGeometry>
                </mxCell>
                <mxCell id="V-P_kBwzDLkw0kjeNrbO-8" value="" style="endArrow=diamondThin;endFill=1;endSize=24;html=1;rounded=0;entryX=0.5;entryY=1;entryDx=0;entryDy=0;exitX=0.5;exitY=0;exitDx=0;exitDy=0;" parent="CHDtnuDMMGn6DQg8g9th-1" source="V-P_kBwzDLkw0kjeNrbO-5" target="V-P_kBwzDLkw0kjeNrbO-2" edge="1">
                    <mxGeometry width="160" relative="1" as="geometry">
                        <mxPoint x="554" y="340" as="sourcePoint"/>
                        <mxPoint x="459" y="262" as="targetPoint"/>
                    </mxGeometry>
                </mxCell>
            </root>
        </mxGraphModel>
    </diagram>
</mxfile>